<?xml version="1.0" encoding="UTF-8"?>
<svg version="1.1" xmlns="http://www.w3.org/2000/svg" width="104" height="59">
<path d="M0 0 C4.19469036 0.62193025 6.37364051 3.24185687 9.23168945 6.15112305 C10.12001717 7.03227531 10.12001717 7.03227531 11.02629089 7.93122864 C12.27368399 9.17522282 13.51479913 10.42553957 14.75 11.68164062 C16.64304941 13.60145208 18.56126476 15.49315342 20.48364258 17.38354492 C21.69293128 18.59613772 22.900668 19.81028066 24.10668945 21.02612305 C24.96904961 21.87330147 24.96904961 21.87330147 25.84883118 22.7375946 C28.05183646 25.00680829 29.67362198 26.84989393 30.5534668 29.9206543 C29.45469123 33.75550834 26.87893349 36.09174648 24.10668945 38.81518555 C23.51925461 39.40740402 22.93181976 39.9996225 22.32658386 40.60978699 C21.08258968 41.85718009 19.83227293 43.09829522 18.57617188 44.33349609 C16.65636042 46.22654551 14.76465908 48.14476085 12.87426758 50.06713867 C11.66167478 51.27642737 10.44753184 52.4841641 9.23168945 53.69018555 C8.66690384 54.26509232 8.10211823 54.83999908 7.5202179 55.43232727 C5.09102777 57.79064139 3.44980337 59.31397372 0.0625 59.90380859 C-2.1628418 59.4206543 -2.1628418 59.4206543 -4.1628418 57.4206543 C-3.1628418 52.4206543 -3.1628418 52.4206543 13.8371582 35.4206543 C-15.2028418 35.0906543 -44.2428418 34.7606543 -74.1628418 34.4206543 C-74.1628418 31.4506543 -74.1628418 28.4806543 -74.1628418 25.4206543 C-30.6028418 24.9256543 -30.6028418 24.9256543 13.8371582 24.4206543 C4.9271582 15.5106543 4.9271582 15.5106543 -4.1628418 6.4206543 C-2.99521989 0.58254474 -2.99521989 0.58254474 0 0 Z " fill="#831843" transform="translate(74.162841796875,-0.420654296875)"/>
</svg>
